<?xml version="1.0" standalone="no"?>
<!DOCTYPE svg PUBLIC "-//W3C//DTD SVG 20010904//EN"
 "http://www.w3.org/TR/2001/REC-SVG-20010904/DTD/svg10.dtd">
<svg version="1.0" xmlns="http://www.w3.org/2000/svg"
 width="512.000000pt" height="512.000000pt" viewBox="0 0 512.000000 512.000000"
 preserveAspectRatio="xMidYMid meet">
<metadata>
Created by potrace 1.11, written by Peter Selinger 2001-2013
</metadata>
<g transform="translate(0.000000,512.000000) scale(0.100000,-0.100000)"
fill="#000000" stroke="none">
<path d="M2264 4660 c-356 -60 -604 -226 -752 -501 -33 -62 -66 -166 -77 -244
-8 -54 -8 -226 -1 -261 2 -12 7 -37 10 -57 21 -133 113 -294 232 -408 124
-117 272 -200 524 -293 597 -221 635 -237 752 -315 153 -103 227 -231 229
-395 2 -220 -124 -392 -347 -475 -31 -12 -72 -24 -91 -27 -20 -3 -45 -8 -57
-10 -24 -5 -183 -6 -206 -1 -8 2 -42 9 -75 16 -313 64 -570 320 -599 596 -5
48 -12 65 -37 91 l-31 32 -142 0 -143 0 -35 -34 -36 -34 1 -485 0 -484 34 -34
34 -35 144 1 144 0 32 33 c29 30 31 37 32 107 l0 74 76 -56 c117 -87 230 -140
373 -175 378 -93 753 -24 1035 191 152 115 262 266 322 441 12 34 24 79 27
100 3 20 7 43 10 51 5 16 6 239 0 266 -2 11 -7 40 -11 65 -13 81 -63 200 -119
283 -119 179 -300 320 -546 427 -41 18 -93 40 -115 50 -22 10 -101 40 -175 68
-351 131 -521 206 -610 270 -84 60 -151 150 -165 218 -15 77 -3 189 29 265 17
40 78 124 110 151 140 116 441 157 648 87 250 -84 419 -280 444 -516 5 -52 11
-66 40 -94 l33 -32 149 0 149 0 32 33 c17 18 31 42 32 54 0 12 0 218 0 460 l1
438 -32 31 -32 31 -146 1 -146 1 -38 -34 c-37 -33 -38 -37 -38 -99 l0 -65 -55
50 c-57 50 -180 117 -269 147 -157 51 -374 65 -552 35z"/>
<path d="M1353 715 l-33 -33 0 -144 0 -144 34 -33 34 -33 1140 0 1139 0 34 33
33 33 1 140 1 141 -34 37 -34 38 -1142 0 -1141 -1 -32 -34z"/>
</g>
</svg>
