<?xml version="1.0" encoding="UTF-8" standalone="no"?>
<svg
   xmlns:dc="http://purl.org/dc/elements/1.1/"
   xmlns:cc="http://creativecommons.org/ns#"
   xmlns:rdf="http://www.w3.org/1999/02/22-rdf-syntax-ns#"
   xmlns:svg="http://www.w3.org/2000/svg"
   xmlns="http://www.w3.org/2000/svg"
   xmlns:xlink="http://www.w3.org/1999/xlink"
   xmlns:sodipodi="http://sodipodi.sourceforge.net/DTD/sodipodi-0.dtd"
   xmlns:inkscape="http://www.inkscape.org/namespaces/inkscape"
   version="1.1"
   viewBox="0 0 1920 1080"
   id="svg91"
   sodipodi:docname="background-color.svg"
   width="1920"
   height="1080"
   inkscape:version="0.92.2 (5c3e80d, 2017-08-06)">
  <metadata
     id="metadata95">
    <rdf:RDF>
      <cc:Work
         rdf:about="">
        <dc:format>image/svg+xml</dc:format>
        <dc:type
           rdf:resource="http://purl.org/dc/dcmitype/StillImage" />
        <dc:title />
      </cc:Work>
    </rdf:RDF>
  </metadata>
  <sodipodi:namedview
     pagecolor="#ffffff"
     bordercolor="#666666"
     borderopacity="1"
     objecttolerance="10"
     gridtolerance="10"
     guidetolerance="10"
     inkscape:pageopacity="0"
     inkscape:pageshadow="2"
     inkscape:window-width="1920"
     inkscape:window-height="1017"
     id="namedview93"
     showgrid="false"
     inkscape:zoom="0.56569628"
     inkscape:cx="861.12704"
     inkscape:cy="527.44532"
     inkscape:window-x="-8"
     inkscape:window-y="-8"
     inkscape:window-maximized="1"
     inkscape:current-layer="svg91" />
  <defs
     id="defs7">
    <linearGradient
       inkscape:collect="always"
       id="g1">
      <stop
         style="stop-color:#91d1c4;stop-opacity:1"
         offset="0"
         id="stop4639" />
      <stop
         style="stop-color:#a7c799;stop-opacity:1"
         offset="1"
         id="stop4641" />
    </linearGradient>
    <radialGradient
       id="a"
       cx="189.28999"
       cy="67.666"
       r="25"
       gradientUnits="userSpaceOnUse"
       gradientTransform="matrix(3.2223,0,0,3.2223,60.253961,158.42695)">
      <stop
         stop-color="#fff"
         offset="0"
         id="stop2" />
      <stop
         stop-color="#fff"
         stop-opacity="0"
         offset="1"
         id="stop4" />
    </radialGradient>
    <linearGradient
       inkscape:collect="always"
       xlink:href="#g1"
       id="linearGradient4647"
       gradientUnits="userSpaceOnUse"
       x1="467.18524"
       y1="310.40994"
       x2="465.93292"
       y2="616.22778"
       gradientTransform="matrix(1.6910341,0,0,2.4729077,55.823832,-700.45696)" />
    <radialGradient
       inkscape:collect="always"
       xlink:href="#a"
       id="radialGradient4663"
       cx="670.203"
       cy="376.4671"
       fx="670.203"
       fy="376.4671"
       r="80.557503"
       gradientUnits="userSpaceOnUse"
       gradientTransform="translate(969.60158,117.55425)" />
  </defs>
  <g
     transform="translate(80.832,-63.259995)"
     id="g89">
    <rect
       x="-80.832001"
       y="63.39954"
       width="1920"
       height="759.40527"
       id="rect9"
       style="fill:url(#linearGradient4647);fill-opacity:1;stroke-width:2.04493785"
       ry="0" />
    <path
       d="m -80.832,767.55742 317.15,-9.163 127.33,-13.88173 60.609,23.04473 173.23733,-55.63008 615.53367,43.57507 629.6755,-11.87508 0.2724,403.62697 -1923.8089,-3.7806 z"
       id="path11"
       style="fill:#3e8b8a;fill-opacity:1;stroke-width:0.8443386"
       inkscape:connector-curvature="0"
       sodipodi:nodetypes="cccccccccc" />
    <path
       d="m -58.954,879.18411 0.53841,-0.19014 3.3314,0.12278 1.337,0.24451 0.93909,-0.20713 5.3697,-0.37226 7.1182,-1.1346 -0.58509,-0.0384 1.8202,-0.46756 -1.4894,0.20068 3.6389,-0.79376 4.5109,-0.64854 0.6191,0.14107 2.1314,-0.22423 0.05611,0.009 2.4631,0.0666 14.007,0.70393 12.09,-1.9588 21.286,-2.6535 13.711,-3.024 31.345,-5.0803 -5.5679,-0.99471 12.872,-2.3675 -0.73719,-0.47814 -14.872,2.3556 -0.11223,-0.0176 13.094,-2.1204 8.3683,-1.7267 -0.0303,-0.0136 39.066,-6.4747 -2.7058,-0.36124 5.2366,-0.62353 12.024,-0.99165 8.034,-0.70595 14.297,-2.4086 -16.463,-1.304 -9.1848,0.46224 -13.807,3.5843 c -1.8299,0.40406 -3.7536,0.85402 -5.6345,1.2427 l -3.0309,-0.40323 -30.415,5.4647 -31.019,4.795 -1.4623,-0.13136 c 7.6193,-1.8135 17.536,-4.065 24.119,-5.644 l 12.59,-2.27 16.359,-3.601 -2.8794,-0.33529 6.170197,-0.96427 1.319503,-0.0857 5.1791,-0.93342 -5.0628,-0.91573 -2.087203,0.0364 0.55341,-0.27628 -10.011997,-1.3269 -2.574,0.21693 1.2609,0.56006 2.4196,2.3254 -3.0754,0.66949 -2.6033,-0.30981 -29.891,6.8034 -8.6322,1.0128 -5.5926,1.267 -1.4773,-0.0452 -12.46,2.3612 -4.9837,-0.44315 1.9654,-0.46256 -0.74029,-0.19543 -2.6687,0.52955 -3.0814,-0.27839 2.3756,-0.071 0.9309,-0.31461 -3.1938,0.1465 -0.10326,0.0193 0.98701,-0.30583 3.4033,-0.0253 0.91297,-0.38821 -2.2465,0.0469 1.0977,-0.14689 -1.0493,-0.20836 -5.4563,0.79271 0.03737,0.005 -0.32556,0.21457 -8.4677,-0.7491 -16.893,6.2078 -4.3725,0.84718 -18.762,5.0749 -3.4452,1.0718 -3.0309,0.66761 1.6989,2.6906 0.80877,0.14419 -0.97805,0.34263 0.93444,0.21695 -0.75575,0.14733 -1.5348,-0.3551 -1.5186,0.30234 -1.7281,0.18105 -1.3721,-0.46239 -0.75945,0.0584 1.5875,0.46069 -4.2699,0.45614 0.04116,0.0949 -0.54397,0.0566 -3.6231,0.63693 -4.4922,0.65147 -0.44442,-0.0518 -1.3974,0.3567 -2.7296,1.3873 2.375,0.62809 z"
       id="path15"
       inkscape:connector-curvature="0"
       style="fill:#241f1c" />
    <path
       d="m 123,644.97411 -8.2958,0.50682 -2.7208,13.204 0.57922,4.9386 -1.1661,5.9713 11.39,4.268 -0.18673,-5.8151 1.8139,-0.009 3.5195,-7.4554 0.17569,-4.2383 1.0796,-5.5561 z"
       id="path17"
       inkscape:connector-curvature="0"
       style="fill:#c98c81;fill-opacity:1" />
    <path
       d="m 150.99,754.15411 1.0104,3.6006 -1.9185,1.6538 0.69503,1.6021 2.1695,-2.265 -0.0479,-3.9071 z"
       id="path19"
       inkscape:connector-curvature="0"
       style="fill:#ac9393" />
    <path
       d="m 151.99,755.99411 1.5773,4.257 -2.9949,1.9553 1.085,1.8942 3.3867,-2.678 -0.0749,-4.6194 z"
       id="path21"
       inkscape:connector-curvature="0"
       style="fill:#ac9393" />
    <path
       d="m 145.41,746.62411 3.419,-1.0848 4.0432,8.3825 -0.0793,0.0237 3.3945,4.2209 0.0605,-0.0251 -1.0863,5.8134 -1.982,-0.13947 1.1037,-4.548 -4.1391,-4.5498 -1.1104,0.32442 -1.3155,2.9302 0.16883,3.9244 -1.6125,-0.27253 -0.58722,-3.393 0.0578,0.003 0.56391,-7.4301 -0.89895,-4.1804 z"
       id="path23"
       inkscape:connector-curvature="0"
       style="fill:#6c5353" />
    <path
       d="m 91.37491,749.72591 1.7797,1.6436 2.0442,2.3118 2.044,4.2196 -1.1332,0.16851 -2.1483,-2.803 -1.3529,-0.2494 0.7064,4.7168 1.331,3.2146 -0.91267,0.37258 -1.8571,-3.1889 -1.5174,-4.465 0.48907,4.6448 1.6928,4.1427 -1.2035,0.11829 -2.1873,-3.9037 -1.1113,-4.2518 0.42448,4.254 1.3789,3.7826 -0.94867,0.0746 -1.6973,-3.7523 -0.74212,-3.911 -0.30034,3.399 0.97186,2.6523 -0.86374,0.06 -1.2065,-3.0989 0.02415,-7.5338 0.37606,-1.9144 0.35987,-2.5283 4.4868,-0.85745 z"
       id="path25"
       inkscape:connector-curvature="0"
       style="fill:#ac9393" />
    <path
       d="m 122.97,801.46411 12.949,-0.12984 0.33056,15.754 2.2754,19.724 13.534,6.8662 3.8817,1.2939 -1.2939,2.1628 -15.546,0.85944 -0.85947,-1.2939 -1.7284,1.2939 -9.0668,-0.42499 0.17831,-6.1726 0.76616,-1.0344 1.2089,-8.9906 -6.8466,-19.459 z"
       id="path27"
       inkscape:connector-curvature="0"
       style="fill:#6c5353" />
    <path
       d="m 95.403,800.26411 14.145,1.3575 0.0798,8.7928 -5.034,23.338 c 0.12733,2.6515 0.63327,5.727 0.98224,8.5002 l -0.10389,5.2984 -7.3419,0.91755 -12.597,-0.82742 -0.07556,-0.83113 1.5206,-2.2289 7.3395,-4.3308 3.0034,-8.8334 c -0.71607,-6.9934 -1.4861,-13.981 -2.2501,-20.969 l -0.0029,-8.0163 z"
       id="path29"
       inkscape:connector-curvature="0"
       style="fill:#6c5353" />
    <path
       d="m 99.658997,734.45411 33.245003,7.7729 5.9312,41.311 -2.909,8.3396 5.9995,40.521 -16.877,1.5738 -2.6892,-21.755 0.40114,-14.973 c -2.0452,-10.986 -4.4457,-28.01 -6.6949,-39.044 l -5.702,40.191 -0.97845,36.118 -17.579,0.87221 3.9329,-44.456 -0.07556,-0.0187 -0.82843,-10.721 z"
       id="path31"
       inkscape:connector-curvature="0"
       style="fill:#ba3525;fill-opacity:1" />
    <path
       d="m 125.92,671.96411 14.275,7.8304 3.8169,10.461 7.6974,28.261 0.9755,31.058 -10.185,3.6605 -1.5617,-31.612 -7.0172,-20.147 -1.6402,22.59 3.7846,22.5 -39.279,-11.439 5.3915,-12.265 -4.0061,-25.826 -4.9145,19.767 0.98003,19.062 3.75,13.609 -10.379,5.8e-4 -4.7364,-38.162 10.297,-33.972 16.272,-7.1453 z"
       id="path33"
       inkscape:connector-curvature="0"
       style="fill:#6c5353" />
    <path
       d="m 98.934997,724.38411 38.128003,25.644 1.9456,-0.0661 0.29279,25.34 -3.0223,1.2939 -2.72,-21.997 -35.483,-23.953 z"
       id="path35"
       inkscape:connector-curvature="0"
       style="fill:#6c5353" />
    <path
       d="m 125.93,673.29411 -1.3882,-3.1267 -14.178,-1.9064 -2.2112,5.1596 z"
       id="path37"
       inkscape:connector-curvature="0"
       style="fill:#6c5353" />
    <path
       d="m 132.39891,740.04591 -39.29,2.1588 -0.43176,-6.0446 38.858,-1.5111 z"
       id="path39"
       inkscape:connector-curvature="0"
       style="fill:#6c5353" />
    <path
       d="m 131.54,729.78411 -38.128,25.644 -1.9456,-0.0661 -0.29279,25.34 3.0223,1.2939 2.72,-21.997 35.483,-23.953 z"
       id="path43"
       inkscape:connector-curvature="0"
       style="fill:#6c5353" />
    <path
       d="m 90.714,676.60411 16.429,-5.3572 19.643,0.71429 14.643,8.5714 3.5714,28.929 21.786,45.714 -60.357,10.714 -25,-1.0714 z"
       id="path41"
       inkscape:connector-curvature="0"
       style="fill:#991f16;fill-opacity:1" />
    <path
       d="m 113.69,657.88411 0.47686,4.5445 0.91079,3.6202 3.6544,2.3741 7.0154,0.96029 -0.1067,-1.9206 2.5874,-6.0552 -2.2674,-1.3871 -4.8548,0.6402 z m 8.125,5.2953 3.0774,-0.74401 1.846,0.50776 -2.0997,3.8373 -2.3321,-0.20577 z"
       id="path45"
       inkscape:connector-curvature="0"
       style="fill:#916f6f" />
    <path
       d="m 111.23,649.94411 -0.94691,7.9269 0.70865,-0.19015 0.61934,2.6664 0.83716,-3.1826 0.76332,1.0486 0.76214,-4.8777 4.5728,-2.2864 0.15243,1.6767 6.3257,-2.2102 0.5335,1.4481 4.1155,-0.45729 -0.45729,-2.0578 -4.268,-6.4019 -5.226,-0.88039 0.42784,0.94046 -3.6338,1.4157 -2.398,-0.10779 0.16009,1.2232 z"
       id="path47"
       inkscape:connector-curvature="0"
       style="fill:#6c5353" />
    <path
       d="m 124.5,664.94411 5.7391,1.1896 -0.41416,0.614 -5.3841,-1.3431 z"
       id="path49"
       inkscape:connector-curvature="0"
       style="fill:#6c5353" />
    <path
       d="m 198.84,863.58411 5.4992,0.0817 5.1202,-1.811 3.8714,-2.4102 34.934,1.443 -8.5044,-4.2934 -41.256,-2.133 -27.951,-0.37527 -10.995,4.6798 32.388,-0.0982 0.96691,2.5538 z"
       id="path51"
       inkscape:connector-curvature="0" />
    <path
       d="m 206.87,836.02411 -5.2631,0.29252 -4.1357,4.7033 -2.7053,6.0003 -33.808,-0.3116 9.8278,9.3324 40.1,1.3751 26.735,-1.5806 8.5606,-11.957 -30.762,3.083 -1.9544,-5.9115 z"
       id="path53"
       inkscape:connector-curvature="0"
       style="fill:#6c5353;fill-opacity:1" />
    <path
       d="m 1661.9888,493.01905 c 0,13.807 -11.193,25 -25,25 -13.807,0 -25,-11.193 -25,-25 0,-13.807 11.193,-25 25,-25 13.807,0 25,11.193 25,25 z"
       id="path77"
       inkscape:connector-curvature="0"
       style="fill:#ffffff;fill-opacity:1" />
    <path
       d="m 1720.3622,494.02135 c 0,44.49029 -36.0672,80.5575 -80.5576,80.5575 -44.4903,0 -80.5575,-36.06721 -80.5575,-80.5575 0,-44.4903 36.0672,-80.5575 80.5575,-80.5575 44.4904,0 80.5576,36.0672 80.5576,80.5575 z"
       id="path83"
       inkscape:connector-curvature="0"
       style="fill:url(#radialGradient4663);fill-opacity:1;stroke-width:3.22230005" />
    <g
       id="g879">
      <path
         style="fill:#241f1c"
         inkscape:connector-curvature="0"
         id="path13"
         d="m 629.63317,1114.1 25.301,1.6465 11.514,3.556 41.339,-2.7752 33.592,3.7262 26.933,0.9663 -9.4164,-2.4146 -26.15,-4.997 3.2616,-0.2147 8.1131,-1.6294 8.944,-1.3628 9.6068,-3.0328 -7.4632,-0.739 3.9464,-0.376 5.5822,0.5103 16.497,-0.6265 59.24,3.9471 45.33,-2.2417 115.55003,-7.401 107.31,-12.017 -2.2949,-1.0781 17.443,-0.5725 -0.1038,-0.051 23.129,0.061 0.054,0.041 18.921,-1.5286 -3.4165,-1.0952 -17.581,1.3844 -1.204,-0.023 9.7826,-1.3914 -1.6892,-2.8207 -9.0744,0.3444 2.7761,2.309 -17.792,1.179 0.4873,0.045 -8.758,-0.1866 -1.8119,-0.7062 7.3224,-2.2668 12.799,-1.0916 -5.141,-0.73 -12.982,1.0657 0.1504,0.03 -20.135,2.8031 -5.2377,-2.4684 -110.73003,11.924 -86.41,4.4848 49.589,-6.2503 72.81903,-6.8142 0.2152,-0.05 13.975,-1.1764 -4.6602,-1.034 9.1069,-2.1698 41.423,-3.6283 17.19,0.5236 11.223,-1.0862 1.2895,0.2755 86.243,-10.064 -1.3386,-0.7866 13.216,-3.1378 31.06,-3.9891 0.8525,0.1686 19.811,-2.2634 95.98,1.634 -26.984,-8.7948 37.725,-3.5206 58.645,4.249 14.063,-7.6024 -1.6502,-9.1165 -31.808,8.2582 -6.6442,0.078 -0.1511,-1.4216 -25.223,-4.5271 -8.3162,1.0571 -13.204,-2.8053 5.809,0.054 -5.2097,-0.4673 c -0.032,-0.089 -0.1804,-0.1838 -0.4222,-0.2678 l 3.4166,-0.7263 -4.9033,0.4426 c -0.3716,-0.044 -0.7951,-0.083 -1.2218,-0.1085 l -0.3133,-0.9728 -2.3385,0.9396 c -0.3737,0.01 -0.7015,0.023 -1.0572,0.047 l -4.016,-0.6099 2.1843,0.8208 c -0.079,0.015 -0.1371,0.025 -0.2079,0.041 l -5.655,0.01 4.7438,0.4673 c 0.023,0.064 0.1533,0.1272 0.2827,0.1889 l -4.4669,0.8359 6.498,-0.4343 c 0.3996,0.039 0.8146,0.077 1.2612,0.096 l 0.4246,0.872 1.933,-0.6923 10.974,2.9682 -6.5275,0.8276 -1.4781,0.8129 -24.23,3.8968 -15.68,0.8392 -28.453,-9.2796 -69.023,4.5154 30.225,-5.5357 12.32,-1.3604 -2.9736,-0.3527 13.078,-2.3975 c 9.2809,-1.0028 20.965,-1.9836 31.237,-2.9205 l 17.597,-2.1897 -22.484,-4.8861 -34.892,-4.5254 -3.0073,0.2956 -3.5297,1.6864 10.028,4.5925 -21.903,5.1142 c -5.51,0.5294 -11.032,1.0608 -16.552,1.5877 l -112.72,-13.49 -149.39003,38.296 -9.8144,1.1804 -5.4742,0.9642 -2.8822,0.4636 -5.1154,-1.0115 -141.21998,12.926 -87.616,19.034 15.44,9.4184 -10.653,2.9589 3.3252,1.9571 -5.7793,1.2313 -0.64873,0.046 0.12433,-1.2238 -4.9982,1.2732 -13.659,0.7886 -6.9338,1.5045 -6.6914,0.3857 -56.602,-6.0758 -20.593,4.401 20.773,-0.9067 33.688,6.1805 -26.003,5.2858 z m 173.67,-35.47 38.934,-7.6102 66.91,-7.1742 14.283,-0.9109 -9.9391,2.5475 -0.1899,-0.017 -10.979,2.6797 z" />
      <path
         style="fill:#c98c81;fill-opacity:1"
         inkscape:connector-curvature="0"
         id="path55"
         d="m 1326.7632,384.97 -19.277,6.7494 c -3.4999,4.9262 -10.566,10.088 -12.163,15.8 l 3.3397,5.5733 -1.8589,7.105 2.5769,9.8552 1.1698,9.5785 7.4049,15.06 6.4051,-2.2595 -2.3363,21.457 49.802,-1.8816 -9.5755,-32.761 2.373,-10.124 0.7031,-35.741 z" />
      <path
         style="fill:#c98c81;fill-opacity:1"
         inkscape:connector-curvature="0"
         id="path57"
         d="m 1223.8332,742.81 -3.7207,14.364 10.385,5.3674 -2.9015,6.5183 -11.898,-7.5877 -1.2845,-15.046 z" />
      <path
         style="fill:#6c5353"
         inkscape:connector-curvature="0"
         id="path59"
         d="m 1243.7532,711.81 -11.175,-3.5456 -13.215,27.398 0.2593,0.0776 -11.095,13.796 -0.1976,-0.082 -2.8696,16.083 5.8945,1.2951 2.813,-14.865 14.112,-13.704 3.6293,1.0604 5.4671,11.328 -1.7191,11.076 5.2704,-0.89079 1.9193,-11.09 -0.1888,0.0113 -1.8432,-24.285 2.9382,-13.663 z" />
      <path
         style="fill:#ac9393"
         inkscape:connector-curvature="0"
         id="path61"
         d="m 1412.0959,712.58976 -5.817,5.3721 -6.6816,7.5561 -6.6808,13.792 3.7038,0.55079 7.0218,-9.1616 4.4219,-0.8151 -2.3089,15.417 -4.3503,10.507 2.9831,1.2178 6.0698,-10.423 4.9596,-14.594 -1.5985,15.182 -5.5328,13.54 3.9335,0.38658 7.1492,-12.759 3.6324,-13.897 -1.3874,13.904 -4.5068,12.363 3.1008,0.24365 5.5477,-12.264 2.4256,-12.783 0.9817,11.11 -3.1765,8.6692 2.8232,0.19612 3.9435,-10.129 -0.079,-24.624 -1.2292,-6.2574 -1.1762,-8.2638 -14.665,-2.8026 z" />
      <path
         style="fill:#ba3525;fill-opacity:1"
         inkscape:connector-curvature="0"
         id="path63"
         d="m 1393.2932,672.04 -108.66,25.406 -19.386,135.02 9.5079,27.258 1.4024,40.223 38.821,2.8091 2.8092,-25.493 c 6.6849,-35.907 14.531,-91.552 21.882,-127.62 l 22.764,127.65 0.2381,19.04 43.156,-1.2348 0.2779,-38.495 0.2469,-0.061 2.7077,-35.042 z" />
      <path
         style="fill:#6c5353"
         inkscape:connector-curvature="0"
         id="path67"
         d="m 1317.0832,891.07 -42.323,-0.42434 -1.0804,51.491 -7.4373,64.46704 -44.237,22.442 -12.688,4.2291 4.2292,7.0692 50.812,2.8091 2.8092,-4.2292 5.6492,4.2292 29.635,-1.3891 -0.5828,-20.175 -2.5042,-3.3809 -3.9513,-26.52904 22.378,-66.46 z" />
      <path
         style="fill:#6c5353"
         inkscape:connector-curvature="0"
         id="path73"
         d="m 1407.2032,887.14 -46.234,4.4368 -0.2608,28.739 16.454,76.279 c -0.4162,8.6666 -2.0699,18.719 -3.2105,27.783 l 0.3396,17.318 29.775,1.3483 34.156,-7.2442 0.2469,-2.7165 -4.97,-7.2853 -22.751,-7.9644 -9.8166,-28.872 c 2.3405,-22.858 4.8574,-45.697 7.3545,-68.538 l 0.01,-26.201 z" />
      <path
         style="fill:#991f16;fill-opacity:1"
         inkscape:connector-curvature="0"
         id="path65"
         d="m 1361.3032,462.02 -53.847,5.7924 -46.672,25.577 -12.467,34.206 -25.172,92.368 -3.1703,101.52 33.276,11.942 5.1011,-103.31 22.955,-65.861 1.2872,49.032 -7.4132,64.788 37.105,106.05 -21.739,108.76 -67.664,69.608 126.41,28.318 25.056,-94.799 -3.269,86.099 137.3,-34.873 -87.696,-226.09 h 11.99 l 15.494,-124.74 -33.658,-111.03 z m 41.285,105.57 11.609,46.768 -3.1941,62.309 -3.1465,11.394 -5.3394,-13.778 0.1668,-0.0471 -5.3871,-14.827 z" />
      <path
         style="fill:#6c5353"
         inkscape:connector-curvature="0"
         id="path69"
         d="m 1267.2732,760.21 1.2473,-12.473 16.714,-14.469 8.9808,4.4904 -1.4968,14.219 -18.959,10.727 z" />
      <path
         style="fill:#6c5353"
         inkscape:connector-curvature="0"
         id="path71"
         d="m 1396.8232,674.16 -124.62,83.817 -6.3592,-0.21609 -0.957,82.824 9.8784,4.2292 8.8905,-71.896 115.98,-78.291 z" />
      <path
         style="fill:#6c5353"
         inkscape:connector-curvature="0"
         id="path75"
         d="m 1304.0532,469.76 5.3156,-11.972 37.195,-14.632 17.094,7.3322 8.4672,19.757 z" />
      <path
         style="fill:#6c5353"
         inkscape:connector-curvature="0"
         id="path79"
         d="m 1305.3532,414.32 1.9918,14.42 3.9837,-3.7616 2.6558,10.658 7.9673,-1.2539 -1.3279,10.815 11.287,-7.0531 4.6476,6.2694 3.3197,-5.0156 5.9755,3.1347 2.6558,-6.8964 8.6312,6.8964 -2.6558,-6.8964 3.3197,-10.658 -2.6558,-8.7772 3.3197,-10.658 c 0.684,-2.8448 1.2265,-9.719 -2.0338,-11.406 l -18.303,-9.4725 -9.1402,-6.9896 -0.3997,5.7253 -13.264,-2.2841 -10.172,6.0317 -4.4268,8.9328 -6.4973,5.3876 z" />
      <path
         style="fill:#6c5353"
         inkscape:connector-curvature="0"
         id="path81"
         d="m 1273.3332,690.39 128.42,7.056 1.4112,-19.757 -127.01,-4.9392 z" />
      <path
         style="fill:#6c5353"
         inkscape:connector-curvature="0"
         id="path85"
         d="m 1344.7332,354.42 -18.337,10.227 -19.386,-3.8808 -8.4848,33.423 -30.417,8.9241 -16.434,13.297 13.901,1.6883 71.978,-1.1812 69.652,-21.568 -7.6278,-25.866 -6.1775,15.294 -40.094,1.4649 z" />
      <path
         style="fill:#ba3525;fill-opacity:1"
         inkscape:connector-curvature="0"
         id="path87"
         d="m 1322.9932,1023.9 -1.3495,5.2487 c -0.3394,0.1234 -0.6716,0.2831 -0.957,0.4939 l -3.6188,-2.4036 1.7975,3.268 -32.815,-4.754 -2.84,7.0691 36.21,1.2657 -2.941,3.341 4.2992,-1.7048 c 0.3651,0.2528 0.7913,0.4451 1.2348,0.5555 l 1.2594,4.2904 0.562,-4.3211 c 0.3473,-0.09 0.6874,-0.2215 0.9878,-0.4014 l 3.993,2.7803 -2.6039,-4.262 c 0.1353,-0.2568 0.2357,-0.5149 0.3087,-0.8028 l 4.2929,-0.553 -4.2621,-1.1756 c -0.021,-0.093 -0.034,-0.1879 -0.062,-0.2778 l 2.6297,-3.4261 -4.0806,1.4504 c -0.2608,-0.1806 -0.5612,-0.3218 -0.8644,-0.4321 z" />
      <path
         d="m 1354.7023,1027.171 0.9765,5.2487 c 0.2456,0.1234 0.486,0.2831 0.6925,0.4939 l 2.6187,-2.4036 -1.3007,3.268 23.746,-4.754 2.0551,7.0691 -26.2027,1.2657 2.1282,3.341 -3.1111,-1.7048 c -0.2642,0.2528 -0.5726,0.4451 -0.8935,0.5555 l -0.9114,4.2904 -0.4066,-4.3211 c -0.2514,-0.09 -0.4975,-0.2215 -0.7149,-0.4014 l -2.8894,2.7803 1.8842,-4.262 c -0.098,-0.2568 -0.1705,-0.5149 -0.2233,-0.8028 l -3.1065,-0.553 3.0842,-1.1756 c 0.015,-0.093 0.025,-0.1879 0.044,-0.2778 l -1.9028,-3.4261 2.9528,1.4504 c 0.1887,-0.1806 0.4061,-0.3218 0.6255,-0.4321 z"
         id="path860"
         inkscape:connector-curvature="0"
         style="fill:#ba3525;fill-opacity:1;stroke-width:0.85066676" />
    </g>
  </g>
</svg>
